<svg xmlns="http://www.w3.org/2000/svg" xmlns:xlink="http://www.w3.org/1999/xlink" viewBox="0 0 87.64 74.56"><defs><style>.cls-1,.cls-31{fill:none;}.cls-2{isolation:isolate;}.cls-3{fill:#b2c7e8;}.cls-4{opacity:0.5;}.cls-5{clip-path:url(#clip-path);}.cls-6{fill:#fff;}.cls-7{fill:#26316a;}.cls-8{fill:#22274f;}.cls-9{fill:#eeebe9;}.cls-10{fill:#dedaee;}.cls-11{fill:url(#Degradado_sin_nombre_18);}.cls-12{fill:#c0d1ec;}.cls-13{fill:#94549c;}.cls-14{fill:#683d8f;}.cls-15{fill:url(#Degradado_sin_nombre_17);}.cls-16{fill:url(#Degradado_sin_nombre_18-2);}.cls-17{opacity:0.71;mix-blend-mode:hard-light;}.cls-18{clip-path:url(#clip-path-2);}.cls-19{fill:#94c01f;}.cls-20{opacity:0.4;}.cls-21{clip-path:url(#clip-path-3);}.cls-22{opacity:0.2;}.cls-23{clip-path:url(#clip-path-4);}.cls-24{clip-path:url(#clip-path-5);}.cls-25{fill:url(#Degradado_sin_nombre_18-3);}.cls-26{fill:url(#Degradado_sin_nombre_17-2);}.cls-27{fill:url(#Degradado_sin_nombre_18-4);}.cls-28{clip-path:url(#clip-path-6);}.cls-29{clip-path:url(#clip-path-7);}.cls-30{clip-path:url(#clip-path-8);}.cls-31{stroke:#216a5f;stroke-linecap:round;stroke-miterlimit:10;}</style><clipPath id="clip-path"><rect class="cls-1" x="9.94" y="11.37" width="31.59" height="52.24"/></clipPath><linearGradient id="Degradado_sin_nombre_18" x1="-3114.33" y1="241.75" x2="-3113.05" y2="241.75" gradientTransform="matrix(0, 6.49, 6.49, 0, -1545.99, 20249.03)" gradientUnits="userSpaceOnUse"><stop offset="0" stop-color="#b2c7e8"/><stop offset="0.2" stop-color="#8c9dc0"/><stop offset="0.46" stop-color="#5f6a90"/><stop offset="0.69" stop-color="#3e466c"/><stop offset="0.88" stop-color="#292f57"/><stop offset="1" stop-color="#22274f"/></linearGradient><linearGradient id="Degradado_sin_nombre_17" x1="-3058.07" y1="244.73" x2="-3056.78" y2="244.73" gradientTransform="matrix(0, 5.83, 5.83, 0, -1404.73, 17870.71)" gradientUnits="userSpaceOnUse"><stop offset="0" stop-color="#683d8f"/><stop offset="0.92" stop-color="#90529b"/><stop offset="1" stop-color="#94549c"/></linearGradient><linearGradient id="Degradado_sin_nombre_18-2" x1="-3145.55" y1="239.34" x2="-3144.26" y2="239.34" gradientTransform="matrix(0, 6.93, 6.93, 0, -1635.03, 21842.43)" xlink:href="#Degradado_sin_nombre_18"/><clipPath id="clip-path-2"><rect class="cls-1" x="9.97" y="23.14" width="30.06" height="40.77"/></clipPath><clipPath id="clip-path-3"><rect class="cls-1" x="10.17" y="13.54" width="10.19" height="53.78"/></clipPath><clipPath id="clip-path-4"><rect class="cls-1" x="25.09" y="13.6" width="13.14" height="55.95"/></clipPath><clipPath id="clip-path-5"><rect class="cls-1" x="47.09" y="14.77" width="32.82" height="52.72"/></clipPath><linearGradient id="Degradado_sin_nombre_18-3" x1="-3958.05" y1="560.65" x2="-3956.77" y2="560.65" gradientTransform="translate(-3566.58 -25636.67) rotate(-90) scale(6.49)" xlink:href="#Degradado_sin_nombre_18"/><linearGradient id="Degradado_sin_nombre_17-2" x1="-3957.65" y1="114.93" x2="-3956.36" y2="114.93" gradientTransform="matrix(-8.92, 1.72, -0.99, -8.46, -35119.97, 7834.27)" xlink:href="#Degradado_sin_nombre_17"/><linearGradient id="Degradado_sin_nombre_18-4" x1="-4061.84" y1="110.16" x2="-4060.55" y2="110.16" gradientTransform="translate(-28070.1 816.58) rotate(-180) scale(6.93)" xlink:href="#Degradado_sin_nombre_18"/><clipPath id="clip-path-6"><rect class="cls-1" x="48.8" y="26.39" width="31.02" height="41.21"/></clipPath><clipPath id="clip-path-7"><rect class="cls-1" x="68.22" y="17.03" width="11.71" height="53.66"/></clipPath><clipPath id="clip-path-8"><rect class="cls-1" x="50.37" y="17.52" width="14.7" height="55.9"/></clipPath></defs><g class="cls-2"><g id="Capa_2" data-name="Capa 2"><g id="Capa_1-2" data-name="Capa 1"><polygon class="cls-3" points="34.17 70.6 7.51 67.23 12.22 11.06 43.21 14.97 34.17 70.6"/><g class="cls-4"><g class="cls-5"><path class="cls-6" d="M41.53,14.88,40,24.65,34,60.88A3,3,0,0,1,31,63.6L12.39,61.25A3.14,3.14,0,0,1,10,57.68L12.76,23l1-11.62Z"/></g></g><path class="cls-7" d="M27.24,60.49l1.93-.24L21.74,16.91A10,10,0,0,0,21,13.52a11.7,11.7,0,0,0-5.36-5.94C10,4.48,1,0,.86,0L0,1.75c.09,0,9.11,4.46,14.71,7.54a9.69,9.69,0,0,1,4.46,4.87A8.22,8.22,0,0,1,19.8,17v.13Z"/><path class="cls-8" d="M23.36,57.34a15.76,15.76,0,0,0,2.45-.78,4.88,4.88,0,0,1,2.06-.66c.49.05,4.46-.56,4.65.14l-2.81,1.5s-5.71.26-6.35-.2"/><path class="cls-9" d="M29.57,57.4s2.69-1.72,3-1.36.33,2.45.58,3.15a1.1,1.1,0,0,1-.59,1.54c-.69.41-2.63,1.72-2.63,1.72Z"/><path class="cls-7" d="M23.36,57.34s2.11.17,3.66.15,2.48-.39,2.69,0,.34,3.45.51,4.16-.4,1-2,.9S24,62.85,24,62.12s-1.21-4.83-.65-4.78"/><path class="cls-6" d="M26.26,58s-2.08-.18-2.52-.19.11,1.59.18,2c0,0,.17.08.19-.16s-.2-1.06.07-1.17.71-.43,1.08-.37,1.18,0,1-.13"/><path class="cls-6" d="M27.49,62.27a13.12,13.12,0,0,1,1.43,0c.55,0,.95-.18.9-.47s-.33-2.64-.37-3-.56.15-.57.51-.6,1-.76,1.64-1,1.09-1,1.26.36.08.36.08"/><path class="cls-10" d="M31.29,56.74a2.82,2.82,0,0,1-.8.54c-.4.15-.52.14-.47.39s.24,1.21.25,1.37.19.18.23.05a6.56,6.56,0,0,1,.24-.9c.13-.3.31-.91.58-1.09s.3-.51,0-.36"/><path class="cls-8" d="M11.89,53.24a16.17,16.17,0,0,0,2.46.72,4.86,4.86,0,0,1,2.07.61c.39.31,4,2,3.79,2.71L17,57s-4.88-3-5.15-3.72"/><path class="cls-9" d="M17,56.76s3.19.08,3.21.52-1.1,2.22-1.28,2.94a1.1,1.1,0,0,1-1.35,1c-.8-.05-3.15-.05-3.15-.05Z"/><path class="cls-7" d="M11.89,53.24s1.65,1.33,2.94,2.17S17.11,56.48,17,57s-1.65,3-1.9,3.73-.89.59-2.17-.38-3.64-2.15-3.22-2.74,1.7-4.68,2.14-4.33"/><path class="cls-6" d="M13.94,55.37s-1.62-1.3-2-1.57-.8,1.39-1,1.79c0,0,.11.16.26,0s.42-1,.71-.94a2.32,2.32,0,0,1,1.11.3c.28.26,1,.68.89.45"/><path class="cls-6" d="M12.56,59.64a12.74,12.74,0,0,1,1.19.78c.44.33.89.37,1,.11s1.21-2.37,1.37-2.69-.55-.19-.76.1-1.07.53-1.55.94-1.44.34-1.52.49.26.27.26.27"/><path class="cls-10" d="M18.8,57.17a2.83,2.83,0,0,1-1,0c-.41-.1-.51-.17-.61.07s-.48,1.14-.55,1.27,0,.26.16.18a5.41,5.41,0,0,1,.7-.62c.28-.18.76-.58,1.09-.58s.53-.26.18-.32"/><rect class="cls-11" x="19.85" y="38.81" width="5.98" height="8.66" transform="matrix(0.13, -0.99, 0.99, 0.13, -22.83, 60.39)"/><path class="cls-1" d="M23.46,45l3.11.69c.32-.65-3.09-2.79-3.43-3.14a5.09,5.09,0,0,0-2-.85,15.46,15.46,0,0,1-2.36-1C19,41.42,23.46,45,23.46,45"/><path class="cls-9" d="M23.45,44.74s3.16.46,3.12.9S25.22,47.72,25,48.41a1.09,1.09,0,0,1-1.45.78c-.78-.14-3.11-.42-3.11-.42Z"/><path class="cls-12" d="M18.79,40.65s1.48,1.51,2.66,2.5,2.14,1.33,2,1.8-2,2.83-2.32,3.48-.95.48-2.11-.64-3.36-2.55-2.88-3.09,2.24-4.45,2.64-4.05"/><path class="cls-6" d="M20.57,43s-1.45-1.49-1.78-1.79-.95,1.28-1.19,1.65c0,0,.08.18.25,0s.55-.93.83-.85a2.15,2.15,0,0,1,1.06.43c.25.28.87.78.83.55"/><path class="cls-6" d="M18.7,47.08a13.38,13.38,0,0,1,1.09.92c.39.38.84.47,1,.23s1.48-2.22,1.67-2.52-.52-.25-.76,0-1.13.4-1.64.74-1.48.17-1.58.31.23.3.23.3"/><path class="cls-10" d="M25.18,45.36a2.67,2.67,0,0,1-.95-.11c-.41-.14-.49-.22-.62,0s-.61,1.07-.7,1.2,0,.26.14.19a7.37,7.37,0,0,1,.77-.53c.3-.14.83-.49,1.15-.45s.56-.19.21-.3"/><path class="cls-13" d="M23.3,40.69c-2.05,1.64-4.81-.48-5.9-.82a8.39,8.39,0,0,1-2.6-2.14,16.19,16.19,0,0,1,6-.1,3.15,3.15,0,0,1,2.47,3.06Z"/><path class="cls-14" d="M23.3,40.69s-1.47-2.62-8.5-3a16.19,16.19,0,0,1,6-.1,3.14,3.14,0,0,1,2.47,3.06"/><path class="cls-7" d="M37.25,27.94c.65,4.94-5.52,7.32-7.14,8.75s-6,2.11-6,2.11,2.23-6.39,5.76-9.87a6,6,0,0,1,7.38-1Z"/><path class="cls-8" d="M37.25,27.94c-.09,0-5.69-.2-13.14,10.86,0,0,2.23-6.39,5.76-9.87a6,6,0,0,1,7.38-1"/><rect class="cls-15" x="18.18" y="56.35" width="5.44" height="7.88" transform="translate(-41.53 73.46) rotate(-82.8)"/><path class="cls-1" d="M17.22,58.11a7.13,7.13,0,0,0,2.1,2c.92.37,3.17,2.41,5.06,1.13h0a2.73,2.73,0,0,0-1.92-2.83A10.86,10.86,0,0,0,19.15,58a17.91,17.91,0,0,0-1.93.1"/><path class="cls-14" d="M24.38,61.28s-1.08-2.38-7.16-3.17a14.2,14.2,0,0,1,5.24.34,2.74,2.74,0,0,1,1.92,2.83"/><rect class="cls-16" x="21.57" y="48.54" width="3.23" height="9.35" transform="translate(-32.51 69.55) rotate(-82.8)"/><path class="cls-1" d="M24.49,52.27c-.67,0-1.21.11-1.37.1a4.86,4.86,0,0,0-2.06.65,16.1,16.1,0,0,1-2.45.78c.64.47,6.35.21,6.35.21l2.81-1.51c-.07-.26-.66-.34-1.41-.34-.59,0-1.28.06-1.87.11"/><path class="cls-9" d="M24.82,53.86s2.69-1.71,2.95-1.35.33,2.45.58,3.15a1.11,1.11,0,0,1-.59,1.54c-.69.4-2.64,1.71-2.64,1.71Z"/><path class="cls-12" d="M18.61,53.8s2.11.18,3.65.16,2.49-.39,2.7,0,.34,3.44.51,4.15-.41,1-2,.9-4.21.25-4.2-.47-1.2-4.83-.64-4.79"/><path class="cls-6" d="M21.51,54.42s-2.08-.17-2.52-.19.11,1.59.17,2c0,0,.18.08.2-.16s-.2-1.06.07-1.18a2.25,2.25,0,0,1,1.08-.37c.38.05,1.18,0,1-.13"/><path class="cls-6" d="M22.74,58.74a12.15,12.15,0,0,1,1.43,0c.55,0,.94-.18.9-.46s-.33-2.65-.37-3-.56.15-.57.51-.6,1-.76,1.63-1,1.09-1,1.26.36.09.36.09"/><path class="cls-10" d="M26.53,53.2a2.7,2.7,0,0,1-.79.54c-.4.15-.52.15-.47.4s.24,1.21.25,1.36.19.19.23.06a6.27,6.27,0,0,1,.24-.91c.13-.3.31-.9.58-1.08s.3-.51,0-.37"/><path class="cls-7" d="M28.75,53.1c-.42,2.25-3.45,2.41-4.37,2.8a7.12,7.12,0,0,1-2.92.06,14,14,0,0,1,3.93-3.48,2.74,2.74,0,0,1,3.36.62Z"/><path class="cls-8" d="M28.75,53.1S26.3,52.2,21.46,56a14,14,0,0,1,3.93-3.48,2.74,2.74,0,0,1,3.36.62"/><g class="cls-17"><g class="cls-18"><path class="cls-19" d="M40,25l-6,36.23A3,3,0,0,1,31,63.9L12.41,61.55A3.13,3.13,0,0,1,10,58l2.8-34.68,0,0a46.55,46.55,0,0,1,9.17.22c4.5.63,10.58,0,11.8.55s4.9.33,6.26.71c0,0,0,.07,0,.2"/></g></g><path class="cls-6" d="M40.05,24.45c-1.38-.37-6.61,0-7.82-.58s-6.62.62-11-.53a35.3,35.3,0,0,0-9-.85h0v0a46.21,46.21,0,0,1,9.18.21c4.5.63,10.58,0,11.8.55s5.5.85,6.86,1.23"/><g class="cls-20"><g class="cls-21"><rect class="cls-6" x="-11.61" y="38.69" width="53.77" height="3.48" transform="translate(-26.75 50.51) rotate(-82.8)"/></g></g><g class="cls-22"><g class="cls-23"><rect class="cls-14" x="3.86" y="38.46" width="55.61" height="6.22" transform="translate(-13.55 67.77) rotate(-82.8)"/></g></g><polygon class="cls-3" points="56.04 74.56 82.59 70.43 76.27 14.41 45.41 19.22 56.04 74.56"/><g class="cls-4"><g class="cls-24"><path class="cls-6" d="M47.09,19.07l1.83,9.73,7,36a3,3,0,0,0,3.14,2.63l18.49-2.88A3.13,3.13,0,0,0,79.88,61l-3.8-34.59L74.72,14.77Z"/></g></g><path class="cls-7" d="M68.72,64.93l-2,0L68.18,21a10.2,10.2,0,0,1,.27-3.46,11.63,11.63,0,0,1,4.49-6.61C78.1,7.09,86.47,1.45,86.56,1.39L87.64,3c-.08.06-8.41,5.67-13.53,9.49a9.7,9.7,0,0,0-3.75,5.43,8.26,8.26,0,0,0-.24,2.86v.13Z"/><path class="cls-8" d="M66.47,61a16.32,16.32,0,0,1-2.47-.7,4.76,4.76,0,0,0-2.07-.6c-.49.06-4.48-.44-4.65.27l2.85,1.42s5.71.1,6.34-.39"/><path class="cls-9" d="M60.27,61.23s-2.75-1.63-3-1.27-.26,2.46-.49,3.17a1.09,1.09,0,0,0,.63,1.52c.7.38,2.69,1.64,2.69,1.64Z"/><path class="cls-7" d="M66.47,61s-2.11.24-3.65.26-2.49-.31-2.69.13-.24,3.45-.4,4.17.44,1,2.05.84S66,66.52,66,65.8,67,60.93,66.47,61"/><path class="cls-6" d="M63.59,61.7s2.07-.24,2.52-.27S66,63,66,63.47c0,0-.18.08-.2-.16s.16-1.06-.11-1.17a2.07,2.07,0,0,0-1.09-.34c-.37.06-1.17.05-1-.1"/><path class="cls-6" d="M62.48,66.05a13.55,13.55,0,0,0-1.43,0c-.54.06-.95-.15-.91-.44s.25-2.65.29-3,.56.14.58.5.63,1,.81,1.61,1,1.06,1,1.23-.37.1-.37.1"/><path class="cls-10" d="M58.53,60.62a2.84,2.84,0,0,0,.81.52c.41.14.52.13.48.38s-.2,1.22-.21,1.38-.18.18-.23.05a7.29,7.29,0,0,0-.26-.9c-.14-.29-.34-.89-.61-1.06s-.31-.5,0-.37"/><path class="cls-8" d="M77.82,56.57a16.71,16.71,0,0,1-2.44.79,4.73,4.73,0,0,0-2.06.67c-.37.31-3.95,2.14-3.7,2.82l3.16-.42s4.79-3.11,5-3.86"/><path class="cls-9" d="M72.81,60.23s-3.19.18-3.19.62S70.78,63,71,63.75a1.11,1.11,0,0,0,1.38.91c.8-.08,3.14-.14,3.14-.14Z"/><path class="cls-7" d="M77.82,56.57s-1.61,1.37-2.88,2.25S72.7,60,72.78,60.43s1.73,3,2,3.68.91.56,2.17-.45,3.57-2.24,3.13-2.83-1.83-4.63-2.26-4.26"/><path class="cls-6" d="M75.83,58.76s1.58-1.35,1.93-1.63.84,1.36,1,1.76c0,0-.1.17-.25,0s-.46-1-.74-.92a2.3,2.3,0,0,0-1.1.33c-.27.26-.94.7-.88.48"/><path class="cls-6" d="M77.34,63a13.26,13.26,0,0,0-1.18.82c-.42.35-.87.4-1,.14s-1.27-2.34-1.45-2.65.55-.21.77.08,1.09.49,1.57.89,1.45.3,1.54.44-.25.28-.25.28"/><path class="cls-10" d="M71,60.69a2.74,2.74,0,0,0,1,0c.41-.11.51-.18.61,0s.52,1.12.6,1.26,0,.25-.16.17a8.62,8.62,0,0,0-.72-.6c-.28-.16-.78-.55-1.1-.54s-.54-.24-.19-.32"/><rect class="cls-25" x="67.11" y="40.36" width="9.06" height="8.68" transform="translate(-11.64 58.67) rotate(-41.48)"/><path class="cls-1" d="M67.38,42.82,69.71,45s5.44,1.72,6.19,1.44a16.41,16.41,0,0,1-2.17-1.39,4.82,4.82,0,0,0-1.82-1.16c-.4-.07-3-1.22-4.12-1.22a.46.46,0,0,0-.41.15"/><path class="cls-9" d="M69.89,44.89s-2.17-2.35-2.51-2.07-.95,2.28-1.37,2.9a1.09,1.09,0,0,0,.17,1.63c.56.57,2.1,2.34,2.1,2.34Z"/><path class="cls-12" d="M75.9,46.44s-2.09-.38-3.58-.79-2.3-1-2.61-.65-1.22,3.24-1.57,3.88.14,1.06,1.72,1.39,4,1.33,4.17.63,2.42-4.36,1.87-4.46"/><path class="cls-6" d="M72.94,46.29s2,.37,2.48.46-.52,1.51-.69,1.92c0,0-.2,0-.15-.21s.46-1,.24-1.15-.58-.59-1-.64-1.14-.28-.92-.38"/><path class="cls-6" d="M70.63,50.14a12.73,12.73,0,0,0-1.37-.39c-.54-.11-.87-.43-.75-.68s1-2.48,1.13-2.81.5.29.42.64.31,1.16.31,1.78.69,1.31.63,1.47-.37,0-.37,0"/><path class="cls-10" d="M68.39,43.81a2.88,2.88,0,0,0,.64.73c.34.25.46.27.34.5s-.54,1.11-.59,1.26-.23.13-.24,0a6.89,6.89,0,0,0,0-.94,2.89,2.89,0,0,0-.28-1.19c-.22-.25-.16-.58.12-.35"/><path class="cls-13" d="M54.39,44.74c-1.06,3.42,3,5.86,4,7.07s4,2.22,4,2.22-.81-4.79-2.88-7.68a4.3,4.3,0,0,0-5.1-1.61Z"/><path class="cls-14" d="M54.39,44.74c.07,0,4,.56,8,9.29,0,0-.81-4.79-2.88-7.68a4.3,4.3,0,0,0-5.1-1.61"/><path class="cls-7" d="M63.94,30.93C60,32.7,61,38.34,60.72,40.19s1.18,5.39,1.18,5.39,3.7-4.56,4.66-8.75a5.18,5.18,0,0,0-2.62-5.9Z"/><path class="cls-8" d="M63.94,30.93c0,.07,2.74,4.11-2,14.65,0,0,3.7-4.56,4.66-8.75a5.18,5.18,0,0,0-2.62-5.9"/><polygon class="cls-26" points="74.73 56.69 62.79 58.98 63.86 68.15 75.8 65.85 74.73 56.69"/><path class="cls-1" d="M66.89,59.92a4.46,4.46,0,0,0-3,4.4h0c2.89,1.69,6.4-1.58,7.83-2.23S75,58.84,75,58.84h-.92a21.45,21.45,0,0,0-7.17,1.09"/><path class="cls-14" d="M63.86,64.32c0-.06,1.73-3.64,11.12-5.48a23.13,23.13,0,0,0-8.08,1.08,4.46,4.46,0,0,0-3,4.4"/><rect class="cls-27" x="62.9" y="51.78" width="9.38" height="3.29" transform="translate(-7.41 11.03) rotate(-8.85)"/><path class="cls-1" d="M63,52.86l2.85,1.42s5.71.1,6.34-.39a16.32,16.32,0,0,1-2.47-.7,4.72,4.72,0,0,0-2.07-.6c-.16,0-.66,0-1.27-.05s-1.1-.06-1.64-.06c-.9,0-1.67.08-1.74.38"/><path class="cls-9" d="M66,54.13s-2.74-1.64-3-1.27-.26,2.46-.49,3.17a1.1,1.1,0,0,0,.63,1.52c.7.38,2.69,1.64,2.69,1.64Z"/><path class="cls-12" d="M72.19,53.89s-2.1.24-3.65.26-2.49-.31-2.69.13-.24,3.45-.39,4.17.43,1,2,.84,4.22.13,4.18-.59,1.07-4.87.51-4.81"/><path class="cls-6" d="M69.31,54.6s2.07-.24,2.52-.27-.07,1.6-.12,2c0,0-.18.08-.2-.16s.17-1.06-.1-1.17a2.1,2.1,0,0,0-1.1-.34c-.37.06-1.17,0-1-.1"/><path class="cls-6" d="M68.2,58.94s-.88,0-1.42,0-1-.15-.91-.44.24-2.65.28-3,.56.14.58.5.63,1,.81,1.61,1,1.06,1,1.23-.37.09-.37.09"/><path class="cls-10" d="M64.25,53.52a2.84,2.84,0,0,0,.81.52c.41.14.52.13.48.38s-.2,1.22-.21,1.38-.18.18-.23.05a7.29,7.29,0,0,0-.26-.9c-.14-.29-.33-.89-.61-1.06s-.31-.5,0-.37"/><path class="cls-7" d="M61,56.91c.49,2.24,3.52,2.31,4.45,2.68a7.16,7.16,0,0,0,2.92,0,14.15,14.15,0,0,0-4-3.37,2.74,2.74,0,0,0-3.34.72Z"/><path class="cls-8" d="M61,56.91s2.43-1,7.37,2.65a14.15,14.15,0,0,0-4-3.37,2.74,2.74,0,0,0-3.34.72"/><g class="cls-17"><g class="cls-28"><path class="cls-19" d="M48.83,28.9l7,36A3,3,0,0,0,59,67.56l18.5-2.87A3.13,3.13,0,0,0,79.79,61L76,26.46l0,0a45.88,45.88,0,0,0-9.16.47c-4.48.76-10.58.27-11.78.89s-4.89.48-6.24.89l0,.21"/></g></g><path class="cls-6" d="M48.85,28.6c1.36-.41,6.6-.18,7.79-.8s6.64.42,11-.86a35.56,35.56,0,0,1,9-1.1h0l0,0a45.45,45.45,0,0,0-9.16.48c-4.48.76-10.58.26-11.78.89s-5.48,1-6.82,1.42"/><g class="cls-20"><g class="cls-29"><rect class="cls-6" x="72.33" y="16.97" width="3.48" height="53.77" transform="translate(-5.86 11.91) rotate(-8.85)"/></g></g><g class="cls-22"><g class="cls-30"><rect class="cls-14" x="54.61" y="17.67" width="6.22" height="55.61" transform="translate(-6.31 9.42) rotate(-8.85)"/></g></g><line class="cls-31" x1="39.93" y1="8.18" x2="43.8" y2="12.04"/><line class="cls-31" x1="46.89" y1="3.89" x2="46.59" y2="9.35"/><line class="cls-31" x1="54.24" y1="9.21" x2="49.65" y2="11.96"/></g></g></g></svg>