<svg id="visual" viewBox="0 0 900 600" width="900" height="600" xmlns="http://www.w3.org/2000/svg" xmlns:xlink="http://www.w3.org/1999/xlink" version="1.1"><g transform="translate(494.33650651375217 313.8325759616385)"><path d="M131.7 -158.8C158.5 -134.6 159.5 -81.4 165.5 -31.6C171.4 18.3 182.3 64.9 164.1 93.1C145.9 121.3 98.6 131.1 55.8 141.7C13 152.2 -25.3 163.5 -69.5 160.6C-113.7 157.7 -163.8 140.6 -202.4 102.8C-241.1 65 -268.3 6.4 -261.9 -49C-255.5 -104.4 -215.5 -156.8 -166.2 -177.1C-117 -197.4 -58.5 -185.7 -3 -182.1C52.5 -178.6 105 -183.1 131.7 -158.8" fill="#ffffff"></path></g></svg>